<?xml version="1.0" encoding="UTF-8"?>
<!DOCTYPE svg PUBLIC "-//W3C//DTD SVG 1.1//EN" "http://www.w3.org/Graphics/SVG/1.1/DTD/svg11.dtd">
<!-- Creator: CorelDRAW X6 -->
<svg xmlns="http://www.w3.org/2000/svg" xml:space="preserve" width="29.006mm" height="7.673mm" version="1.1" style="shape-rendering:geometricPrecision; text-rendering:geometricPrecision; image-rendering:optimizeQuality; fill-rule:evenodd; clip-rule:evenodd"
viewBox="0 0 2901 767"
 xmlns:xlink="http://www.w3.org/1999/xlink">
 <defs>
  <style type="text/css">
   <![CDATA[
    .fil0 {fill:#FEFEFE}
    .fil1 {fill:#FEFEFE;fill-rule:nonzero}
   ]]>
  </style>
 </defs>
 <g id="Camada_x0020_1">
  <metadata id="CorelCorpID_0Corel-Layer"/>
  <g id="_631885680">
   <polygon class="fil0" points="356,724 61,554 61,350 140,395 140,509 317,611 317,407 61,259 61,214 356,44 356,44 533,146 454,191 356,134 179,236 356,338 612,191 651,214 651,554 474,656 474,566 572,509 572,305 395,407 395,701 "/>
   <polygon class="fil1" points="1120,520 1120,381 932,381 932,520 847,520 847,213 932,213 932,347 1120,347 1120,213 1205,213 1205,520 "/>
   <polygon id="1" class="fil1" points="1469,520 1385,520 1385,402 1249,213 1346,213 1447,363 1554,213 1605,213 1469,402 "/>
   <path id="2" class="fil1" d="M1734 489c3,0 6,1 10,1 4,0 8,1 12,1 4,0 8,0 12,1 4,0 7,0 10,0 25,0 46,-1 63,-3 17,-2 31,-7 44,-13 7,-4 13,-8 18,-13 6,-5 11,-13 15,-21 4,-9 8,-20 10,-33 2,-13 4,-29 4,-49 0,-24 -4,-44 -12,-59 -8,-15 -19,-27 -33,-36 -14,-9 -30,-15 -48,-18 -18,-3 -38,-5 -59,-5 -3,0 -7,0 -11,0 -4,0 -8,0 -12,1 -4,0 -8,0 -12,1 -4,0 -7,1 -9,1l0 246zm-84 -274c9,-1 19,-1 31,-2 12,-1 24,-1 38,-2 13,-1 27,-1 40,-1 13,0 26,0 38,0 34,0 64,3 92,8 28,5 51,14 71,25 20,12 35,27 46,45 11,18 16,40 16,66 0,25 -4,48 -13,69 -9,21 -22,39 -41,53 -19,15 -43,26 -72,34 -29,8 -65,12 -107,12 -12,0 -24,0 -37,0 -13,0 -25,-1 -38,-1 -12,-1 -24,-1 -36,-2 -11,-1 -21,-1 -30,-2l0 -302z"/>
   <path id="3" class="fil1" d="M2220 393l-29 0 0 127 -84 0 0 -306c17,-1 36,-2 58,-2 22,-1 42,-1 62,-1 50,0 88,7 114,20 26,14 39,35 39,64 0,13 -2,24 -7,34 -4,10 -10,18 -17,25 -7,7 -16,13 -25,18 -10,5 -19,9 -30,12 12,16 24,31 35,45 11,14 23,26 34,37 11,10 23,19 34,25 11,6 24,9 37,9l3 0 0 20c-7,1 -14,3 -23,4 -9,1 -18,1 -29,1 -15,0 -29,-1 -40,-3 -11,-2 -23,-6 -34,-13 -11,-7 -22,-16 -34,-29 -12,-13 -25,-30 -41,-52l-23 -32zm-13 -30c12,0 23,-1 34,-3 11,-2 19,-5 26,-8 3,-1 6,-4 9,-6 3,-3 6,-6 9,-10 2,-4 5,-9 6,-15 2,-6 2,-14 2,-23 0,-10 -2,-19 -5,-26 -3,-7 -8,-13 -15,-17 -7,-4 -15,-8 -25,-9 -10,-2 -21,-3 -34,-3 -3,0 -7,0 -12,0 -4,0 -8,0 -12,1l0 120 15 0z"/>
   <path id="4" class="fil1" d="M2749 520l-49 -103 -157 2 -50 102 -54 0 164 -304 82 -10 153 314 -91 0zm-62 -132l-63 -132 -65 132 128 0z"/>
  </g>
 </g>
</svg>
